<svg width="72" height="72" viewBox="0 0 72 72" fill="none" xmlns="http://www.w3.org/2000/svg">
<path d="M8.3333 14L3 15.0764L5.14282 24L14.7143 54L25.8809 29L30.6667 22.3333H53L46.619 15.6667H24.2857L8.3333 14Z" fill="#790F30"/>
<path d="M15 55L27.7268 25.3L30.9085 22H34.0902H59.5439L67 22.2747L65.9073 30.25L54.7713 51.7L49.9987 55H15Z" fill="#AF1949"/>
<path d="M14.7619 55L2.40377 15.2972C2.20341 14.6535 2.68442 14 3.35859 14H22.4961C22.6551 14 22.8119 14.0379 22.9533 14.1106L25.7134 15.5294C25.8548 15.6021 26.0115 15.64 26.1705 15.64H47.8396C48.1096 15.64 48.3681 15.7492 48.5564 15.9427L54.6429 22.2M14.7619 55H53.989C54.3862 55 54.7458 54.7649 54.9051 54.401L68.3868 23.601C68.676 22.9403 68.1919 22.2 67.4707 22.2H54.6429M14.7619 55L28.8568 22.799C29.0161 22.4351 29.3757 22.2 29.7729 22.2H54.6429" stroke="white" stroke-width="4"/>
<path d="M55.1359 33.0788C49.7558 29.8723 42.8109 31.8889 39.6256 37.5841C37.0775 42.1402 37.7072 47.6694 40.8157 51.3401C41.2492 51.7257 41.6066 51.5131 41.7589 51.2407C41.8964 50.9949 42.3416 50.1771 42.8194 49.3131C39.7601 48.3214 40.2175 46.1401 40.2175 46.1401C40.4409 44.684 39.9796 43.9864 39.9796 43.9864C39.4536 42.8196 40.3968 43.3994 40.3968 43.3994C41.3345 44.0551 41.2959 45.352 41.2959 45.352C41.2833 47.4464 42.9484 47.8312 43.6518 47.899C44.1119 47.2847 44.6189 46.9802 45.0416 46.8888C43.0233 45.3383 41.243 43.0983 43.4529 39.1471C44.0826 38.0212 44.9777 37.3281 46.0048 36.9774C46.0489 36.6574 46.302 35.4099 47.6255 34.3047C47.6255 34.3047 48.5986 34.5152 49.7143 36.959C50.6192 37.1937 51.5168 37.5759 52.347 38.0654C53.1727 38.5628 53.9429 39.1745 54.5936 39.867C57.1993 39.6412 57.8614 40.4053 57.8614 40.4053C57.5973 42.1416 56.677 42.9917 56.4307 43.1911C56.6514 44.2855 56.5149 45.4308 55.8852 46.5566C53.6701 50.5172 50.9031 50.0309 48.5908 48.9932C48.7613 49.5215 48.7217 50.3346 48.1836 51.2967C47.4119 52.6764 46.7796 53.7802 46.5896 54.1198C46.4361 54.3943 46.4317 54.8203 46.9822 55.0133C51.6146 55.9542 56.5638 53.7519 59.1112 49.1974C62.2965 43.5021 60.5165 36.2856 55.1359 33.0788ZM40.8263 44.1366C40.7762 44.175 40.6914 44.145 40.6417 44.0685C40.5898 43.9927 40.5892 43.8992 40.6408 43.8614C40.6913 43.8212 40.7759 43.852 40.8266 43.9293C40.8786 44.0052 40.8795 44.0997 40.8263 44.1366ZM41.0524 44.8748C40.9805 44.8927 40.9014 44.8173 40.8801 44.7086C40.8565 44.5987 40.8984 44.4954 40.9714 44.4773C41.0448 44.4603 41.121 44.5341 41.1446 44.644C41.1677 44.7548 41.1267 44.8576 41.0524 44.8748ZM41.0573 45.6498C40.973 45.6581 40.8985 45.5588 40.8894 45.4311C40.881 45.3039 40.9425 45.1939 41.0281 45.1862C41.1133 45.1782 41.1872 45.2751 41.1975 45.4026C41.2048 45.5313 41.1433 45.6412 41.0572 45.6499L41.0573 45.6498ZM41.2382 46.6518C41.15 46.6824 41.0455 46.5978 41.0098 46.4631C40.9712 46.3292 41.0135 46.1972 41.1019 46.1667C41.1909 46.1364 41.2955 46.2222 41.3322 46.3566C41.3703 46.4899 41.3297 46.6242 41.2382 46.6518ZM41.8303 47.3065C41.7615 47.3733 41.6313 47.3447 41.5402 47.2446C41.4498 47.1436 41.4306 47.006 41.4985 46.9377C41.5669 46.87 41.6983 46.8974 41.7889 47.0003C41.8793 47.1011 41.8991 47.238 41.8303 47.3065ZM42.5943 47.89C42.5495 47.9767 42.4165 47.9914 42.2998 47.924C42.1818 47.8573 42.126 47.7323 42.1715 47.6477C42.2195 47.5619 42.3501 47.5466 42.4678 47.614C42.585 47.6806 42.6416 47.8054 42.5943 47.89ZM43.4159 48.3362C43.3834 48.4275 43.2553 48.4647 43.1275 48.4189C43.0022 48.3733 42.9261 48.2597 42.9578 48.1689C42.9913 48.0754 43.121 48.0391 43.2462 48.0843C43.3733 48.1318 43.4484 48.2431 43.4159 48.3362Z" fill="white"/>
</svg>
